<svg xmlns="http://www.w3.org/2000/svg" viewBox="0 0 66 24"><path transform="translate(0 3) scale(0.8)" fill="#fff" d="M14.6 9.2c0-1.7 1.4-2.5 1.4-2.6-.8-1.1-2-1.3-2.4-1.3-1-.1-2 .6-2.5.6s-1.3-.6-2.2-.6c-1.1 0-2.1.7-2.7 1.7-1.1 2-.3 5 .8 6.6.6.8 1.2 1.7 2 1.6.8 0 1.1-.5 2.1-.5s1.3.5 2.2.5 1.4-.8 1.9-1.5c.6-.9.9-1.7.9-1.8 0 0-1.7-.7-1.8-2.3zM13 4.5c.4-.6.7-1.3.6-2.1-.6 0-1.4.4-1.9 1-.4.5-.8 1.3-.7 2 .7.1 1.5-.3 2-.9z"/><text x="20" y="18" font-family="Arial,Helvetica,sans-serif" font-weight="700" font-size="18" fill="#fff">Pay</text></svg>