<svg width="32" height="24" viewBox="0 0 32 24" fill="none" xmlns="http://www.w3.org/2000/svg">
<rect width="32" height="24" rx="4" fill="#FFA8CD"/>
<path d="M26.9977 14.5186C26.3698 14.5186 25.8804 13.9994 25.8804 13.3689C25.8804 12.7384 26.3698 12.2192 26.9977 12.2192C27.6256 12.2192 28.1149 12.7384 28.1149 13.3689C28.1149 13.9994 27.6256 14.5186 26.9977 14.5186ZM26.6836 15.7332C27.2192 15.7332 27.9026 15.5292 28.2813 14.7318L28.3181 14.7504C28.152 15.1861 28.152 15.4458 28.152 15.5107V15.6127H29.5V11.1251H28.152V11.2271C28.152 11.292 28.152 11.5516 28.3181 11.9874L28.2813 12.006C27.9026 11.2086 27.2192 11.0046 26.6836 11.0046C25.4003 11.0046 24.4954 12.0245 24.4954 13.3689C24.4954 14.7133 25.4003 15.7332 26.6836 15.7332ZM22.1499 11.0046C21.5404 11.0046 21.0602 11.2179 20.6724 12.006L20.6355 11.9874C20.8017 11.5516 20.8017 11.292 20.8017 11.2271V11.1251H19.4536V15.6127H20.8386V13.2484C20.8386 12.6272 21.1988 12.2377 21.7805 12.2377C22.3623 12.2377 22.6485 12.5715 22.6485 13.2391V15.6127H24.0336V12.757C24.0336 11.7371 23.2394 11.0046 22.1499 11.0046ZM17.4498 12.006L17.4128 11.9874C17.579 11.5516 17.579 11.292 17.579 11.2271V11.1251H16.2309V15.6127H17.616L17.6252 13.4523C17.6252 12.8219 17.9576 12.4417 18.5025 12.4417C18.6502 12.4417 18.7702 12.4603 18.9088 12.4974V11.1251C18.2993 10.9953 17.7545 11.2271 17.4498 12.006ZM13.0452 14.5186C12.4173 14.5186 11.9279 13.9994 11.9279 13.3689C11.9279 12.7384 12.4173 12.2192 13.0452 12.2192C13.6731 12.2192 14.1625 12.7384 14.1625 13.3689C14.1625 13.9994 13.6731 14.5186 13.0452 14.5186ZM12.7312 15.7332C13.2668 15.7332 13.9501 15.5292 14.3287 14.7318L14.3656 14.7504C14.1994 15.1861 14.1994 15.4458 14.1994 15.5107V15.6127H15.5476V11.1251H14.1994V11.2271C14.1994 11.292 14.1994 11.5516 14.3656 11.9874L14.3287 12.006C13.9501 11.2086 13.2668 11.0046 12.7312 11.0046C11.4477 11.0046 10.5428 12.0245 10.5428 13.3689C10.5428 14.7133 11.4477 15.7332 12.7312 15.7332ZM8.61287 15.6127H9.99798V9.12244H8.61287V15.6127ZM7.59715 9.12244H6.18434C6.18434 10.2814 5.47333 11.3198 4.39296 12.0616L3.96819 12.3583V9.12244H2.5V15.6127H3.96819V12.3954L6.39672 15.6127H8.18813L5.85192 12.5344C6.91382 11.7649 7.60638 10.5688 7.59715 9.12244Z" fill="#0B051D"/>
</svg>
